<?xml version="1.0" ?><svg enable-background="new 0 0 32 32" id="Layer_1" version="1.1" viewBox="0 0 32 32" xml:space="preserve" xmlns="http://www.w3.org/2000/svg" xmlns:xlink="http://www.w3.org/1999/xlink"><g id="Layer_4_copy_4"><g><path d="M16,32c8.837,0,16-7.163,16-16S24.837,0,16,0S0,7.163,0,16S7.163,32,16,32z M16,0.75    c8.409,0,15.25,6.841,15.25,15.25S24.409,31.25,16,31.25S0.75,24.409,0.75,16S7.591,0.75,16,0.75z" fill="#414753"/><path d="M16,29.57c7.495,0,13.57-6.076,13.57-13.57c0-7.495-6.076-13.57-13.57-13.57S2.43,8.505,2.43,16    S8.505,29.57,16,29.57z M16,3.18c7.069,0,12.82,5.751,12.82,12.82S23.069,28.82,16,28.82S3.18,23.069,3.18,16S8.931,3.18,16,3.18z    " fill="#414753"/><path d="M14.113,23.273h3.005V16h2.005l0.266-2.506h-2.27l0.003-1.255c0-0.653,0.062-1.004,1-1.004h1.253V8.727    H17.37c-2.409,0-3.256,1.216-3.256,3.261v1.505h-1.501V16h1.501v7.273H14.113z" fill="#414753"/></g></g></svg>