<?xml version="1.0" ?><svg enable-background="new 0 0 32 32" id="Layer_1" version="1.1" viewBox="0 0 32 32" xml:space="preserve" xmlns="http://www.w3.org/2000/svg" xmlns:xlink="http://www.w3.org/1999/xlink"><g id="Layer_4_copy_4"><g><path d="M16,32c8.837,0,16-7.163,16-16S24.837,0,16,0S0,7.163,0,16S7.163,32,16,32z M16,0.75    c8.409,0,15.25,6.841,15.25,15.25S24.409,31.25,16,31.25S0.75,24.409,0.75,16S7.591,0.75,16,0.75z" fill="#414753"/><path d="M16,29.57c7.495,0,13.57-6.076,13.57-13.57S23.495,2.43,16,2.43S2.43,8.505,2.43,16S8.505,29.57,16,29.57z     M16,3.18c7.069,0,12.82,5.751,12.82,12.82S23.069,28.82,16,28.82S3.18,23.069,3.18,16S8.931,3.18,16,3.18z" fill="#414753"/><path d="M10.687,23.084h10.625c1,0,1.771-0.771,1.771-1.771V10.687c0-1-0.771-1.771-1.771-1.771H10.687    c-1,0-1.771,0.771-1.771,1.771v10.626C8.916,22.312,9.687,23.084,10.687,23.084z M18.656,11.13c0-0.245,0.198-0.443,0.443-0.443    h1.771c0.245,0,0.443,0.198,0.443,0.443v1.771c0,0.245-0.198,0.443-0.443,0.443h-1.771c-0.245,0-0.443-0.198-0.443-0.443V11.13z     M16.01,13.217c1.571,0,2.845,1.234,2.845,2.756s-1.273,2.756-2.845,2.756c-1.57,0-2.844-1.235-2.844-2.756    C13.167,14.451,14.441,13.217,16.01,13.217z M10.687,14.672l1.104,0.24c-0.118,0.385-0.183,0.793-0.183,1.215    c0,2.354,1.972,4.265,4.402,4.265c2.431,0,4.403-1.91,4.403-4.265c0-0.423-0.064-0.83-0.182-1.215l1.082-0.24v6.198    c0,0.31-0.133,0.443-0.443,0.443h-9.74c-0.309,0-0.443-0.132-0.443-0.443C10.687,20.87,10.687,14.672,10.687,14.672z" fill="#414753"/></g></g></svg>