<svg id="Layer_1" data-name="Layer 1" xmlns="http://www.w3.org/2000/svg" viewBox="0 0 302.46 573.2"><defs><style>.cls-1{fill:#f7323f;}</style></defs><title>Untitled-1</title><polygon class="cls-1" points="0.44 0 60.9 0 60.9 180.7 241.66 0 302.02 0 107.58 211.15 302.02 481.91 241.66 481.91 60.9 240.96 60.9 301.88 29.93 421.72 0.44 301.21 0.44 0"/><circle class="cls-1" cx="30.36" cy="451.69" r="29.97"/><path class="cls-1" d="M316.23,656.81l18-18.23h9.32l-20.91,20.69,21,25h-9.35l-16.65-20.33-1.44,1.42v18.91h-7V638.58h7Z" transform="translate(-309.25 -111.9)"/><path class="cls-1" d="M353.76,655.45V672q0,7.16,5.72,7.16T365.2,672V655.45h6.74v16.69a18.37,18.37,0,0,1-.87,6,10,10,0,0,1-2.91,4.05,14.3,14.3,0,0,1-17.34,0,10.21,10.21,0,0,1-3-4.05,16.3,16.3,0,0,1-.84-6V655.45Z" transform="translate(-309.25 -111.9)"/><path class="cls-1" d="M387.18,634.29v50h-6.74v-50Z" transform="translate(-309.25 -111.9)"/><path class="cls-1" d="M402.67,661.66v22.61h-6.74V661.66h-2.88v-6.21h2.88V644.88h6.74v10.57h5.24v6.21Z" transform="translate(-309.25 -111.9)"/><path class="cls-1" d="M419.23,655.45V672q0,7.16,5.72,7.16t5.72-7.16V655.45h6.74v16.69a18.37,18.37,0,0,1-.87,6,10,10,0,0,1-2.91,4.05,14.3,14.3,0,0,1-17.34,0,10.21,10.21,0,0,1-3-4.05,16.3,16.3,0,0,1-.84-6V655.45Z" transform="translate(-309.25 -111.9)"/><path class="cls-1" d="M445.92,655.45h6.74V658a12.84,12.84,0,0,1,3.29-2.63,7.63,7.63,0,0,1,3.47-.74,11,11,0,0,1,5.57,1.72l-3.09,6.1a6.48,6.48,0,0,0-3.74-1.36q-5.51,0-5.51,8.23v14.95h-6.74Z" transform="translate(-309.25 -111.9)"/><path class="cls-1" d="M485.82,660.36l-5.57,2.93q-1.32-2.63-3.26-2.63a2.26,2.26,0,0,0-1.59.61,2,2,0,0,0-.66,1.55q0,1.66,3.89,3.28,5.36,2.27,7.22,4.2a7.12,7.12,0,0,1,1.86,5.17,9,9,0,0,1-3.12,7,10.7,10.7,0,0,1-7.31,2.66q-7.34,0-10.39-7.07l5.75-2.63a12.36,12.36,0,0,0,1.83,2.63,4.2,4.2,0,0,0,2.94,1.12q3.41,0,3.41-3.08,0-1.78-2.64-3.31l-2-1-2.07-1a12.65,12.65,0,0,1-4.13-2.84,6.94,6.94,0,0,1-1.53-4.65A8.17,8.17,0,0,1,471,657.1a9.2,9.2,0,0,1,6.47-2.46Q483.09,654.65,485.82,660.36Z" transform="translate(-309.25 -111.9)"/><path class="cls-1" d="M500.7,661.66v22.61H494V661.66h-2.88v-6.21H494V644.88h6.74v10.57h5.24v6.21Z" transform="translate(-309.25 -111.9)"/><path class="cls-1" d="M509.57,669.65A14.24,14.24,0,0,1,514.09,659a16.1,16.1,0,0,1,22.1,0,15.3,15.3,0,0,1,0,21.69A15.56,15.56,0,0,1,525,685.1a15.15,15.15,0,0,1-15.43-15.45Zm6.89.12a9.65,9.65,0,0,0,2.34,6.84,9.16,9.16,0,0,0,12.64,0,10.72,10.72,0,0,0,0-13.44,9,9,0,0,0-12.58,0A9.2,9.2,0,0,0,516.46,669.77Z" transform="translate(-309.25 -111.9)"/><path class="cls-1" d="M547.82,655.45h6.74V658a12.84,12.84,0,0,1,3.29-2.63,7.63,7.63,0,0,1,3.47-.74,11,11,0,0,1,5.57,1.72l-3.09,6.1a6.48,6.48,0,0,0-3.74-1.36q-5.51,0-5.51,8.23v14.95h-6.74Z" transform="translate(-309.25 -111.9)"/><path class="cls-1" d="M571.69,655.45h6.74v2.66a14,14,0,0,1,3.32-2.72,8.15,8.15,0,0,1,3.68-.74,9,9,0,0,1,7.82,4.26,10.16,10.16,0,0,1,8.6-4.26q9.85,0,9.85,11.81v17.82h-6.77v-16q0-4.14-1-5.86a3.7,3.7,0,0,0-3.44-1.75,4.41,4.41,0,0,0-4.06,2.07q-1.27,2.07-1.27,6.66v14.89h-6.77V668.35q0-7.69-4.49-7.69a4.52,4.52,0,0,0-4.15,2.1q-1.3,2.1-1.3,6.63v14.89h-6.74Z" transform="translate(-309.25 -111.9)"/></svg>